<?xml version="1.0" standalone="no"?>
<!DOCTYPE svg PUBLIC "-//W3C//DTD SVG 20010904//EN"
 "http://www.w3.org/TR/2001/REC-SVG-20010904/DTD/svg10.dtd">
<svg version="1.0" xmlns="http://www.w3.org/2000/svg"
 width="793.000000pt" height="264.000000pt" viewBox="0 0 793.000000 264.000000"
 preserveAspectRatio="xMidYMid meet">

<g transform="translate(0.000000,264.000000) scale(0.100000,-0.100000)"
fill="#000000" stroke="none">
<path d="M5150 2625 c-185 -39 -335 -122 -461 -252 -81 -83 -119 -139 -171
-250 -58 -124 -82 -247 -75 -393 3 -63 13 -141 22 -174 36 -136 105 -266 193
-367 l39 -44 -17 -143 c-17 -139 -18 -144 -64 -220 -26 -42 -87 -127 -135
-187 -89 -110 -269 -295 -288 -295 -6 0 -18 20 -27 44 -9 24 -41 80 -70 123
-77 114 -96 155 -96 207 0 40 6 52 51 103 86 98 96 137 41 163 l-27 12 24 9
c49 19 121 82 160 139 70 106 74 136 110 881 26 551 26 551 6 559 -31 11 -276
29 -506 36 l-206 7 23 -139 c39 -243 84 -686 84 -841 0 -63 -3 -84 -15 -91
-32 -17 -192 8 -371 59 -56 16 -106 29 -111 29 -5 0 4 -123 19 -272 15 -150
27 -292 28 -315 0 -23 4 -44 9 -47 40 -25 533 -55 634 -39 31 6 57 8 57 5 0
-2 -21 -27 -47 -56 -49 -54 -77 -108 -88 -168 -6 -30 -21 -50 -74 -96 -137
-121 -242 -185 -319 -198 -34 -5 -44 -3 -65 18 -13 13 -34 51 -47 84 -20 54
-22 69 -15 189 12 228 12 229 -7 233 -27 5 -51 -31 -116 -176 -87 -192 -124
-252 -222 -352 -88 -90 -152 -130 -208 -130 -72 0 -79 72 -27 291 43 182 45
230 10 264 -30 31 -56 32 -91 2 -26 -23 -27 -27 -35 -173 -4 -82 -15 -184 -23
-227 -9 -43 -16 -97 -16 -120 1 -58 32 -122 72 -147 72 -46 224 8 332 118 55
56 206 257 206 274 0 4 4 8 9 8 4 0 16 -33 26 -73 20 -85 56 -154 93 -182 45
-34 131 -27 217 17 82 42 178 111 254 182 50 47 54 50 65 32 6 -10 37 -55 69
-100 31 -44 69 -104 83 -133 26 -52 26 -52 7 -90 -18 -38 -31 -47 -146 -99
-65 -29 -92 -61 -83 -99 6 -24 10 -25 75 -25 65 0 72 2 142 48 69 45 201 151
296 239 58 53 145 153 216 248 73 99 71 96 64 60 -4 -16 -20 -108 -37 -204
-29 -164 -30 -174 -14 -192 10 -12 30 -19 51 -19 47 0 109 60 196 190 109 164
204 286 250 323 108 88 127 74 152 -112 32 -243 93 -314 244 -283 80 17 180
81 292 189 55 53 102 94 104 91 3 -2 0 -31 -6 -64 -17 -90 -7 -230 19 -280 43
-84 114 -120 219 -111 119 9 278 109 339 213 28 47 26 74 -3 74 -10 0 -49 -25
-87 -55 -128 -102 -263 -149 -320 -112 -67 44 -75 232 -17 427 40 135 40 155
0 176 -44 22 -77 11 -95 -31 -8 -19 -14 -45 -14 -59 0 -18 -20 -43 -72 -91
-153 -139 -262 -211 -361 -236 -44 -11 -50 -10 -71 10 -30 28 -43 74 -61 215
-16 120 -35 189 -61 217 -13 15 -7 17 84 23 233 16 429 104 584 261 l65 65 16
-51 c10 -28 17 -58 17 -65 0 -34 92 2 114 44 27 53 36 111 19 127 -19 20 -57
29 -89 21 -14 -4 -24 -3 -22 1 91 182 113 247 127 387 42 418 -228 810 -639
926 -98 28 -297 36 -390 15z m386 -40 c114 -34 160 -54 245 -111 168 -111 301
-296 353 -489 26 -95 32 -273 12 -380 -52 -273 -249 -515 -509 -623 -115 -48
-220 -65 -361 -59 -147 6 -212 23 -336 85 -108 54 -101 34 -80 203 11 88 11
112 0 138 -16 39 -58 64 -84 49 -26 -15 -66 -106 -66 -153 -1 -73 -13 -72 -69
2 -66 87 -124 205 -153 313 -34 126 -31 310 6 435 137 456 599 718 1042 590z
m-619 -1595 c43 -22 114 -49 158 -61 44 -12 87 -24 95 -26 9 -3 0 -11 -24 -19
-93 -33 -223 -172 -356 -381 -78 -122 -96 -130 -86 -40 14 126 116 567 131
567 2 0 39 -18 82 -40z"/>
<path d="M5195 2323 c-11 -2 -27 -7 -35 -10 -8 -4 -17 -7 -20 -8 -3 0 -27 -11
-54 -23 -27 -12 -51 -22 -55 -22 -3 0 -27 -17 -53 -38 -73 -57 -140 -144 -167
-214 -14 -35 -29 -69 -35 -77 -7 -8 -11 -71 -11 -155 1 -115 4 -147 18 -171 9
-16 17 -36 17 -43 0 -52 113 -191 206 -255 102 -70 185 -91 338 -85 167 7 235
33 365 143 39 34 107 137 131 200 34 90 40 274 11 375 -25 90 -97 201 -165
256 -59 48 -136 94 -156 94 -8 0 -28 8 -45 17 -23 12 -59 17 -150 18 -66 1
-129 0 -140 -2z m209 -70 c155 -126 456 -447 456 -487 0 -9 -34 24 -76 74
-132 159 -321 343 -458 448 -22 17 -25 22 -11 22 10 0 50 -26 89 -57z m-415
-150 c199 -141 439 -371 593 -570 100 -130 120 -160 110 -167 -5 -3 -37 34
-72 82 -162 218 -370 430 -584 592 -65 50 -123 90 -128 90 -5 0 -6 5 -3 10 9
15 12 14 84 -37z m-112 -383 c173 -138 488 -477 454 -488 -7 -2 -13 -2 -14 -1
-2 2 -37 47 -79 99 -88 111 -293 313 -390 385 -37 28 -67 56 -68 63 0 6 2 12
5 12 2 0 44 -32 92 -70z"/>
<path d="M6667 2608 c-69 -35 -423 -177 -520 -209 -37 -12 -67 -26 -67 -31 0
-22 143 -217 475 -648 100 -129 185 -241 189 -248 14 -24 -165 -283 -364 -524
l-24 -30 304 8 c168 5 357 8 421 6 l117 -3 47 143 c108 324 191 519 451 1056
118 243 214 444 214 447 0 3 -148 5 -330 5 -313 0 -330 -1 -339 -19 -6 -10
-51 -116 -101 -236 -50 -119 -96 -228 -103 -242 -13 -23 -20 -10 -154 260 -78
156 -145 287 -149 290 -5 3 -35 -8 -67 -25z"/>
<path d="M24 2518 c16 -187 28 -658 23 -888 -6 -223 -26 -551 -42 -662 l-5
-37 392 0 c366 1 573 -4 676 -17 39 -5 43 -3 52 22 31 79 91 459 77 481 -3 4
-108 3 -234 -4 -125 -6 -252 -12 -282 -12 l-54 -1 5 50 c3 28 7 52 9 54 2 1
54 -1 114 -5 61 -4 172 -10 248 -13 l137 -6 0 242 0 241 -210 -7 c-116 -3
-238 -9 -272 -13 l-61 -6 7 64 c4 35 10 66 12 68 9 10 354 -21 482 -42 83 -14
132 -19 132 -12 -1 41 -102 317 -171 463 l-52 111 -111 -7 c-147 -9 -566 -9
-740 1 l-139 8 7 -73z"/>
<path d="M1364 2502 c42 -554 45 -1027 9 -1499 l-6 -83 90 0 90 0 6 -36 c8
-48 57 -123 107 -163 64 -51 136 -85 281 -130 256 -81 282 -95 287 -152 3 -30
-3 -42 -36 -75 -57 -56 -153 -110 -257 -143 -126 -40 -192 -46 -290 -25 -119
25 -118 25 -133 -24 -17 -51 -8 -66 55 -94 167 -74 537 30 711 201 165 163 99
312 -178 399 -36 12 -103 33 -150 48 -108 34 -169 65 -209 105 -28 27 -66 87
-59 90 2 1 77 9 168 18 l165 16 3 97 3 97 36 7 c49 9 156 -2 192 -21 38 -19
61 -52 61 -88 0 -61 71 -36 91 33 l12 41 24 -28 c12 -15 44 -58 70 -95 l47
-68 267 0 c146 0 281 3 299 6 31 7 32 8 26 48 -17 119 -29 346 -29 541 -1 196
22 697 42 953 4 51 4 95 1 96 -23 11 -482 -41 -586 -67 l-49 -12 -9 -95 c-5
-57 -5 -180 1 -305 5 -115 9 -212 7 -214 -1 -2 -18 14 -36 35 -85 99 -386 422
-498 536 l-125 126 -254 5 -253 5 6 -86z m845 -1141 c45 -51 80 -95 78 -97 -2
-3 -38 1 -78 7 -41 6 -99 9 -130 6 l-56 -5 -7 102 c-3 55 -9 128 -13 161 l-6
60 65 -70 c36 -38 102 -112 147 -164z"/>
</g>
</svg>
